# xmcd
#
# Track frame offsets: 
#        150
#        20077
#        34595
#        48802
#        62235
#        69727
#        86845
#        98302
#        109687
#        120107
#        136615
#        151365
#        165757
#        179430
#        199909
#        215230
#        230102
#        252840
#        269352
#
# Disc length: 3789 seconds
#
# Revision: 3
# Processed by: cddbd v1.5.1PL0 Copyright (c) Steve Scherf et al.
# Submitted via: ExactAudioCopy v0.90b4
#
DISCID=000ecb13
DTITLE=Various Artist - Cold Mountain (OST)
DYEAR=2003
DGENRE=Soundtrack
TTITLE0=Jack White - Wayfaring Stranger
TTITLE1=Reeltime Travelers - Like A Songbird That Has Fallen
TTITLE2=Tim Eriksen, Riley Baugus, Tim O'Brien - I Wish My Baby Was Bo
TTITLE2=rn
TTITLE3=Alison Krauss - The Scarlet Tide
TTITLE4=Tim Eriksen and Riley Baugus - The Cuckoo
TTITLE5=Jack White - Sittin' On Top of the World
TTITLE6=Tim Eriksen - Am I Born To Die
TTITLE7=Alison Krauss - You Will Be My Ain True Love
TTITLE8=Sacred Harp Singers At Liberty Church - I'm Going Home
TTITLE9=Jack White - Never Far Away
TTITLE10=Jack White - Christmas Time Will Soon Be Over
TTITLE11=Stuart Duncan and Dirk Powell - Ruby With the Eyes That Sparkle
TTITLE12=Cassie Franklin - Lady Margret
TTITLE13=Jack White - Great High Mountain
TTITLE14=Gabriel Yared - Anthem
TTITLE15=Gabriel Yared - Ada Plays
TTITLE16=Gabriel Yared - Ada And Inman
TTITLE17=Gabriel Yared - Love Theme
TTITLE18=Sacred Harp Singers At Liberty Church - Idumea
EXTD=YEAR: 2003
EXTT0=
EXTT1=
EXTT2=
EXTT3=
EXTT4=
EXTT5=
EXTT6=
EXTT7=
EXTT8=
EXTT9=
EXTT10=
EXTT11=
EXTT12=
EXTT13=
EXTT14=
EXTT15=
EXTT16=
EXTT17=
EXTT18=
PLAYORDER=
